PathFileType	4	(X/Y/Z)	 s11c0401.trc
DataRate	CameraRate	NumFrames	NumMarkers	Units	OrigDataRate	OrigDataStartFrame	OrigNumFrames
200	200	4	48	mm	200	1001	2000
Frame#	Time	racr			lacr			c7			jug			rlel			rdr			llel			ldr			s2			lic			ric			lasi			rasi			rpsi			lpsi			rgt			lgt			rth1			rth2			rth3			rth4			rlfc			rmfc			rsh1			rsh2			rsh3			rsh4			rlmal			rcal			rtoe			rmt5			lth1			lth2			lth4			lth3			llfc			lmfc			llmal			lcal			lmt5			lsh1			lsh2			lsh3			lsh4			ltoe			SBIKE			LBIKE			RBIKE			
		X1	Y1	Z1	X2	Y2	Z2	X3	Y3	Z3	X4	Y4	Z4	X5	Y5	Z5	X6	Y6	Z6	X7	Y7	Z7	X8	Y8	Z8	X9	Y9	Z9	X10	Y10	Z10	X11	Y11	Z11	X12	Y12	Z12	X13	Y13	Z13	X14	Y14	Z14	X15	Y15	Z15	X16	Y16	Z16	X17	Y17	Z17	X18	Y18	Z18	X19	Y19	Z19	X20	Y20	Z20	X21	Y21	Z21	X22	Y22	Z22	X23	Y23	Z23	X24	Y24	Z24	X25	Y25	Z25	X26	Y26	Z26	X27	Y27	Z27	X28	Y28	Z28	X29	Y29	Z29	X30	Y30	Z30	X31	Y31	Z31	X32	Y32	Z32	X33	Y33	Z33	X34	Y34	Z34	X35	Y35	Z35	X36	Y36	Z36	X37	Y37	Z37	X38	Y38	Z38	X39	Y39	Z39	X40	Y40	Z40	X41	Y41	Z41	X42	Y42	Z42	X43	Y43	Z43	X44	Y44	Z44	X45	Y45	Z45	X46	Y46	Z46	X47	Y47	Z47	X48	Y48	Z48	
1001	5.0050	784.332710	1317.454265	-72.843449	777.521510	1306.353396	-407.770314	769.578056	1402.949152	-241.890682	710.715355	1227.454757	-242.349148	600.171367	1135.543218	66.308188	757.829870	955.611595	-35.818361	544.475771	1145.322484	-568.224291	741.478143	954.473753	-448.248946	149.971024	1333.155057	-218.699128	346.805117	1304.052048	-437.048816	363.425062	1272.847762	-29.594912	348.569815	1218.694733	-405.378999	367.249617	1200.464317	-67.605156	217.216306	1392.646427	-167.135899	204.913108	1392.211877	-260.082819	277.467258	1144.426473	-18.312445	239.652015	1194.500942	-437.602155	352.034252	1018.143096	-13.547103	414.607347	956.800906	-30.696076	436.213851	873.534631	-45.616984	444.525650	975.594831	-39.814559	483.801383	776.566697	-63.343743	476.532990	763.070702	-192.138363	363.670421	669.288035	-52.650737	310.142880	602.542972	-74.134909	229.793142	568.081278	-76.166653	327.092609	587.598660	-106.785713	116.509361	500.349648	-90.200236	71.245808	544.486070	-140.042401	195.716570	285.735004	-141.085325	134.593037	328.139926	-71.800284	328.702823	1064.452453	-453.569146	390.632650	1005.844803	-448.877818	422.431470	1023.890301	-441.471905	415.527034	919.553932	-445.175382	477.826893	789.661675	-420.023328	491.216604	776.932326	-294.573399	316.799786	388.943044	-404.006483	251.502619	358.158963	-373.141068	444.282647	276.494749	-440.054874	429.031038	671.623302	-440.913000	423.822646	587.334437	-426.697929	377.224708	512.136674	-422.649456	453.959297	580.491499	-403.958292	541.422874	283.600593	-369.695636	-203.910006	959.965981	-263.114826	1.414841	82.502982	-461.142779	-15.231276	81.370140	-62.706822	
1002	5.0100	784.430925	1317.593339	-71.128886	777.935531	1306.566738	-406.400149	770.044662	1403.650719	-240.683993	712.105322	1228.285685	-240.596586	600.134609	1134.533097	65.888523	758.287936	955.185814	-36.773377	544.709563	1146.007926	-567.446852	741.598045	954.604911	-448.917681	151.505209	1330.988535	-220.669491	347.886148	1300.694807	-437.160061	364.212900	1272.893426	-30.970377	349.997379	1215.546473	-405.777433	367.980522	1200.515962	-68.746620	217.395563	1391.669654	-168.720810	205.608266	1390.790816	-263.040533	279.640942	1145.049250	-17.650090	239.110411	1189.902464	-437.070110	355.236729	1019.493567	-12.873501	419.030830	959.411737	-29.647158	442.082948	876.384975	-44.682804	448.608960	978.861366	-38.802325	492.151244	781.019528	-62.944299	484.525263	767.776871	-191.771811	370.973374	675.330242	-52.366005	316.660508	609.509754	-74.042674	235.904606	575.867001	-76.230102	333.553320	594.030653	-106.568305	121.516785	510.555653	-90.103788	76.439359	555.090616	-139.970209	198.930002	295.311213	-141.225964	137.966659	338.390223	-71.780988	325.713558	1058.411086	-453.551886	385.880990	997.962428	-448.723558	417.991754	1015.153022	-442.548000	408.457732	911.114627	-444.451969	468.241095	780.995791	-419.601942	481.246521	768.325967	-294.358383	313.287328	378.349162	-403.973612	248.467002	348.058277	-373.800820	441.049526	265.519684	-440.223327	420.027707	663.638922	-440.856384	416.274669	578.907239	-426.778809	371.002292	503.178840	-422.850463	446.819313	572.874744	-405.454915	538.142039	272.441725	-369.681740	-203.870382	959.953404	-263.172869	1.429875	82.496379	-461.132454	-15.228921	81.354252	-62.717252	
1003	5.0150	784.437603	1317.640721	-69.345564	778.424635	1307.183088	-405.090000	770.325224	1404.529300	-239.449625	713.529292	1228.960487	-239.029862	600.147545	1133.246457	65.589894	758.806627	954.683099	-37.877676	544.512538	1146.280102	-565.348635	742.107623	954.770573	-450.014426	151.673216	1329.713350	-220.874101	348.934855	1297.284427	-437.393579	365.121435	1272.808620	-32.389423	351.614095	1212.354043	-406.123976	368.727203	1200.568644	-70.066780	217.532860	1390.525908	-169.982232	205.736967	1388.966003	-265.226542	281.793503	1145.576440	-16.975219	238.559033	1185.174304	-436.666274	358.242316	1020.662417	-12.266637	423.550366	962.093897	-28.544878	448.737408	879.502885	-43.797812	452.662561	982.121877	-38.280031	500.868093	785.880224	-62.345924	496.144788	772.317062	-189.762963	378.634818	681.213500	-52.095987	323.409228	616.423403	-74.141068	242.398308	583.546818	-76.352757	340.381381	600.612129	-106.357740	127.220401	520.607011	-90.036836	82.263138	565.444032	-139.833616	202.530453	304.442680	-141.175412	141.952303	348.268553	-71.797743	322.378252	1052.010853	-453.398007	380.882983	990.038242	-448.502325	413.627115	1006.436197	-442.398537	401.181321	902.541511	-443.550351	458.935488	772.787495	-419.133536	472.213130	760.729749	-293.718350	309.300926	368.580492	-404.820787	244.889274	338.235188	-374.359768	437.306318	254.814192	-440.319319	411.161010	655.702779	-440.530154	408.826541	570.783223	-426.921338	364.685995	494.325180	-423.086272	439.665043	564.991888	-405.902119	534.347812	261.423413	-369.568953	-203.828838	959.935839	-263.250639	1.381051	82.531115	-461.080803	-15.219489	81.363805	-62.738954	
1004	5.0200	784.414358	1317.657828	-67.519819	779.028074	1308.297121	-403.861113	770.471021	1405.694503	-238.011718	714.871839	1229.827674	-237.472535	600.063454	1131.975606	65.244467	759.294420	954.299582	-38.936898	544.815737	1147.188778	-564.216370	742.771191	954.888963	-451.497128	151.856628	1327.859321	-221.464863	349.902796	1294.049299	-437.587965	366.119510	1272.679203	-33.719343	353.512384	1209.266384	-406.771138	369.464124	1200.581782	-71.339959	217.526751	1389.308030	-170.742988	205.814606	1386.701535	-266.466317	283.988242	1145.945232	-16.325637	237.923014	1180.367961	-436.392065	361.286016	1021.807103	-11.743379	428.382063	964.996484	-27.548381	455.817586	883.223856	-42.748752	456.779200	985.933359	-37.415204	509.734378	791.244233	-61.790423	505.915921	778.283426	-191.322319	386.660505	687.658384	-51.651249	330.615321	623.286698	-74.146150	249.674504	591.543826	-76.290888	347.146188	607.698898	-106.218807	133.412614	530.194289	-89.872353	88.546834	575.464160	-139.805085	206.832246	313.621363	-141.035131	146.590179	357.945911	-71.687806	318.877295	1045.496904	-453.279817	375.694473	981.984233	-448.204541	408.916040	997.588507	-442.628559	393.773084	894.158239	-442.467961	449.559625	765.002936	-418.021003	461.118212	754.015356	-291.778733	305.131361	357.917809	-404.141364	240.833624	329.125289	-374.878363	432.834433	244.494267	-440.457665	402.595130	647.750191	-440.007304	401.370823	562.801027	-426.802747	358.257062	485.813846	-423.233748	432.395741	557.265818	-405.822456	529.827267	250.677292	-369.419371	-203.820969	959.913473	-263.302833	1.384007	82.502054	-461.064861	-15.226550	81.352001	-62.741625	
